<?xml version="1.0" encoding="UTF-8"?>
<svg role="img" aria-label="medica עפולה" xmlns="http://www.w3.org/2000/svg" xmlns:xlink="http://www.w3.org/1999/xlink" viewBox="174.25 123.75 259.93 24.67">
<defs>
<clipPath id="clip-0">
<path clip-rule="nonzero" d="M 160 43.875 L 470 43.875 L 470 112 L 160 112 Z M 160 43.875 "/>
</clipPath>
<clipPath id="clip-1">
<path clip-rule="nonzero" d="M 484 53 L 539.589844 53 L 539.589844 117 L 484 117 Z M 484 53 "/>
</clipPath>
<clipPath id="clip-2">
<path clip-rule="nonzero" d="M 320.226562 123 L 435 123 L 435 147.484375 L 320.226562 147.484375 Z M 320.226562 123 "/>
</clipPath>
<clipPath id="clip-3">
<path clip-rule="nonzero" d="M 183 124 L 248.117188 124 L 248.117188 149 L 183 149 Z M 183 124 "/>
</clipPath>
<clipPath id="clip-4">
<path clip-rule="nonzero" d="M 248.457031 124 L 258.199219 124 L 258.199219 145 L 248.457031 145 Z M 248.457031 124 "/>
</clipPath>
</defs>
<g clip-path="url(#clip-2)">
<path fill-rule="nonzero" fill="rgb(25.491333%, 17.297363%, 57.014465%)" fill-opacity="1" d="M 434.179688 129.070312 L 434.179688 139.027344 C 434.179688 141.734375 433.109375 143.085938 430.976562 143.085938 L 428.476562 143.085938 L 428.476562 139.847656 L 429.832031 139.847656 C 430.65625 139.847656 431.070312 139.382812 431.070312 138.460938 L 431.070312 132.308594 L 428.117188 132.308594 C 427.273438 132.308594 426.722656 132.542969 426.46875 133.015625 C 426.398438 133.164062 426.359375 133.328125 426.359375 133.496094 L 426.359375 143.085938 L 423.238281 143.085938 L 423.238281 133.171875 C 423.238281 133 423.1875 132.71875 423.089844 132.320312 L 421.921875 132.320312 L 421.921875 129.070312 L 425.84375 129.070312 L 426.1875 130.753906 L 426.46875 130.753906 L 427.863281 129.550781 C 428.21875 129.230469 428.605469 129.070312 429.019531 129.070312 Z M 418.851562 143.085938 L 415.726562 143.085938 L 415.726562 133.835938 C 415.726562 132.816406 415.28125 132.308594 414.382812 132.308594 L 409.53125 132.308594 L 409.53125 129.070312 L 415.273438 129.070312 C 417.660156 129.070312 418.851562 130.3125 418.851562 132.804688 Z M 406.636719 138.460938 C 406.636719 139.996094 406.246094 141.167969 405.46875 141.96875 C 404.742188 142.710938 403.730469 143.085938 402.4375 143.085938 L 397.011719 143.085938 L 397.011719 139.847656 L 401.773438 139.847656 C 402.453125 139.847656 402.914062 139.71875 403.15625 139.464844 C 403.394531 139.210938 403.511719 138.734375 403.511719 138.035156 L 403.511719 133.835938 C 403.511719 133.195312 403.394531 132.765625 403.15625 132.550781 C 402.949219 132.390625 402.578125 132.308594 402.039062 132.308594 L 397.050781 132.308594 L 397.050781 129.070312 L 403.035156 129.070312 C 405.4375 129.070312 406.636719 130.359375 406.636719 132.945312 Z M 393.851562 132.320312 L 390.953125 132.320312 L 390.953125 132.703125 L 391.988281 134.316406 C 392.085938 134.488281 392.148438 134.660156 392.175781 134.839844 L 393 141.050781 L 392.652344 143.085938 L 389.886719 143.085938 L 389.886719 142.734375 C 389.886719 142.636719 389.882812 142.503906 389.867188 142.335938 C 389.855469 142.164062 389.832031 141.957031 389.792969 141.714844 L 388.707031 132.875 C 388.660156 132.507812 388.488281 132.261719 388.1875 132.140625 L 387.628906 131.898438 L 387.628906 129.070312 L 393.851562 129.070312 Z M 378.609375 143.085938 L 375.484375 143.085938 L 375.484375 133.835938 C 375.484375 132.816406 375.035156 132.308594 374.140625 132.308594 L 369.289062 132.308594 L 369.289062 129.070312 L 375.03125 129.070312 C 377.414062 129.070312 378.609375 130.3125 378.609375 132.804688 Z M 366.144531 129.070312 L 366.144531 138.742188 C 366.144531 140.140625 365.796875 141.222656 365.09375 141.996094 C 364.4375 142.722656 363.570312 143.085938 362.488281 143.085938 L 355.535156 143.085938 L 355.535156 139.847656 L 361.546875 139.847656 C 362.113281 139.847656 362.507812 139.714844 362.730469 139.449219 C 362.925781 139.214844 363.023438 138.789062 363.023438 138.175781 L 363.023438 132.179688 L 360.015625 132.179688 C 359.121094 132.179688 358.671875 132.488281 358.671875 133.101562 L 358.671875 134.570312 L 360.707031 134.570312 L 360.707031 137.527344 L 355.65625 137.527344 L 355.65625 134.316406 L 356.839844 132.535156 L 356.839844 132.238281 L 355.402344 131.914062 L 355.402344 129.070312 Z M 351.65625 143.085938 L 348.53125 143.085938 L 348.53125 132.308594 L 346.882812 132.308594 L 346.882812 129.070312 L 351.65625 129.070312 Z M 344.300781 143.085938 L 341.253906 143.085938 L 336.1875 134.8125 C 335.816406 135.207031 335.632812 135.660156 335.632812 136.167969 L 335.632812 140.144531 L 336.921875 140.144531 L 336.921875 143.085938 L 332.652344 143.085938 L 332.652344 136.015625 C 332.652344 135.664062 332.742188 135.375 332.917969 135.136719 L 334.632812 133.042969 L 334.632812 132.617188 L 332.667969 129.664062 L 332.667969 129.070312 L 336.015625 129.070312 L 340.191406 135.519531 C 340.476562 135.074219 340.617188 134.664062 340.617188 134.289062 L 340.617188 129.070312 L 343.753906 129.070312 L 343.753906 134.316406 C 343.753906 134.675781 343.660156 134.96875 343.476562 135.195312 L 341.601562 137.414062 L 341.601562 137.867188 L 344.300781 142.351562 Z M 329.136719 136.875 L 326.25 136.875 L 325.945312 132.960938 L 325.945312 132.308594 L 324.363281 132.308594 L 324.363281 129.070312 L 329.136719 129.070312 Z M 314.835938 147.484375 L 312.097656 147.484375 L 312.097656 123.75 L 314.835938 123.75 Z M 301.703125 129.070312 L 301.703125 143.085938 L 298.578125 143.085938 L 298.578125 132.308594 L 294.175781 132.308594 L 294.457031 139.648438 L 294.457031 143.085938 L 289.230469 143.085938 L 289.230469 139.847656 L 291.386719 139.847656 L 291.132812 134.132812 L 291.824219 132.675781 L 291.824219 132.351562 L 290.175781 131.996094 L 290.175781 129.070312 Z M 286.484375 135.363281 C 286.484375 136.476562 286.328125 137.347656 286.019531 137.980469 C 285.734375 138.554688 285.171875 139.207031 284.332031 139.929688 L 280.648438 143.140625 L 279.636719 143.140625 L 279.636719 140.101562 L 282.589844 137.5 C 283.101562 137.046875 283.363281 136.507812 283.363281 135.886719 L 283.363281 132.308594 L 276.738281 132.308594 L 276.738281 125.363281 L 279.863281 125.363281 L 279.863281 129.070312 L 286.484375 129.070312 Z M 268.0625 143.085938 L 265.015625 143.085938 L 259.953125 134.8125 C 259.578125 135.207031 259.394531 135.660156 259.394531 136.167969 L 259.394531 140.144531 L 260.683594 140.144531 L 260.683594 143.085938 L 256.414062 143.085938 L 256.414062 136.015625 C 256.414062 135.664062 256.503906 135.375 256.679688 135.136719 L 258.394531 133.042969 L 258.394531 132.617188 L 256.429688 129.664062 L 256.429688 129.070312 L 259.777344 129.070312 L 263.953125 135.519531 C 264.238281 135.074219 264.378906 134.664062 264.378906 134.289062 L 264.378906 129.070312 L 267.515625 129.070312 L 267.515625 134.316406 C 267.515625 134.675781 267.421875 134.96875 267.238281 135.195312 L 265.363281 137.414062 L 265.363281 137.867188 L 268.0625 142.351562 Z M 253.441406 143.085938 L 243.097656 143.085938 L 243.097656 139.847656 L 247.855469 139.847656 C 248.132812 139.847656 248.363281 139.816406 248.554688 139.753906 C 248.746094 139.695312 248.898438 139.59375 249.011719 139.449219 C 249.128906 139.308594 249.210938 139.125 249.257812 138.890625 C 249.308594 138.660156 249.332031 138.375 249.332031 138.035156 L 249.332031 132.308594 L 243.28125 132.308594 L 243.28125 129.070312 L 252.457031 129.070312 L 252.457031 136.890625 C 252.457031 137.230469 252.320312 137.6875 252.042969 138.261719 L 251.433594 139.5625 L 251.433594 139.847656 L 253.441406 139.847656 Z M 239.992188 136.875 L 237.105469 136.875 L 236.800781 132.960938 L 236.800781 132.308594 L 235.21875 132.308594 L 235.21875 129.070312 L 239.992188 129.070312 Z M 232.882812 143.085938 L 222.539062 143.085938 L 222.539062 139.847656 L 227.300781 139.847656 C 227.574219 139.847656 227.804688 139.816406 227.996094 139.753906 C 228.1875 139.695312 228.339844 139.59375 228.457031 139.449219 C 228.570312 139.308594 228.652344 139.125 228.703125 138.890625 C 228.75 138.660156 228.773438 138.375 228.773438 138.035156 L 228.773438 132.308594 L 222.726562 132.308594 L 222.726562 129.070312 L 231.898438 129.070312 L 231.898438 136.890625 C 231.898438 137.230469 231.761719 137.6875 231.488281 138.261719 L 230.875 139.5625 L 230.875 139.847656 L 232.882812 139.847656 Z M 232.882812 143.085938 "/>
</g>
<path fill-rule="nonzero" fill="rgb(25.491333%, 17.297363%, 57.014465%)" fill-opacity="1" d="M 264.527344 124.910156 L 271.738281 124.910156 C 273.277344 124.910156 274.535156 125.328125 275.507812 126.167969 C 276.675781 127.117188 277.285156 128.472656 277.335938 130.230469 C 277.300781 132.820312 276.113281 134.582031 273.769531 135.515625 L 278.042969 143.972656 L 274.722656 143.972656 L 270.902344 135.828125 L 267.320312 135.828125 L 267.320312 143.972656 L 264.527344 143.972656 Z M 267.320312 133.265625 L 271.5625 133.265625 C 272.613281 133.25 273.398438 132.933594 273.921875 132.324219 C 274.4375 131.753906 274.699219 131.054688 274.699219 130.226562 C 274.679688 129.230469 274.371094 128.507812 273.769531 128.0625 C 273.296875 127.667969 272.613281 127.472656 271.714844 127.472656 L 267.320312 127.472656 Z M 267.320312 133.265625 "/>
<path fill-rule="nonzero" fill="rgb(25.491333%, 17.297363%, 57.014465%)" fill-opacity="1" d="M 280.855469 124.910156 L 283.492188 124.910156 L 288.785156 137.335938 L 293.976562 124.910156 L 296.621094 124.910156 L 296.621094 143.972656 L 293.824219 143.972656 L 293.824219 132.085938 L 293.761719 132.085938 L 289.898438 141.242188 L 287.566406 141.242188 L 283.703125 132.085938 L 283.652344 132.085938 L 283.652344 143.972656 L 280.855469 143.972656 Z M 280.855469 124.910156 "/>
<path fill-rule="nonzero" fill="rgb(25.491333%, 17.297363%, 57.014465%)" fill-opacity="1" d="M 313.601562 138.648438 C 313.195312 140.414062 312.421875 141.773438 311.28125 142.722656 C 310.109375 143.660156 308.71875 144.132812 307.117188 144.132812 C 305.664062 144.097656 304.453125 143.730469 303.480469 143.03125 C 302.496094 142.363281 301.777344 141.585938 301.332031 140.707031 C 301.195312 140.417969 301.074219 140.144531 300.964844 139.882812 C 300.863281 139.613281 300.777344 139.273438 300.710938 138.863281 C 300.582031 138.09375 300.519531 136.621094 300.519531 134.441406 C 300.519531 132.226562 300.582031 130.746094 300.710938 129.996094 C 300.84375 129.246094 301.050781 128.640625 301.332031 128.179688 C 301.777344 127.300781 302.496094 126.515625 303.484375 125.828125 C 304.453125 125.128906 305.664062 124.773438 307.117188 124.753906 C 308.898438 124.773438 310.351562 125.316406 311.472656 126.386719 C 312.597656 127.464844 313.304688 128.800781 313.601562 130.394531 L 310.632812 130.394531 C 310.40625 129.625 309.992188 128.96875 309.390625 128.429688 C 308.765625 127.914062 308.003906 127.648438 307.109375 127.628906 C 306.449219 127.648438 305.882812 127.78125 305.40625 128.035156 C 304.925781 128.296875 304.539062 128.625 304.242188 129.019531 C 303.878906 129.429688 303.636719 129.957031 303.519531 130.605469 C 303.382812 131.285156 303.316406 132.566406 303.316406 134.441406 C 303.316406 136.320312 303.382812 137.589844 303.519531 138.253906 C 303.636719 138.917969 303.878906 139.457031 304.242188 139.867188 C 304.539062 140.261719 304.925781 140.578125 305.410156 140.824219 C 305.882812 141.113281 306.449219 141.257812 307.109375 141.257812 C 308.683594 141.257812 309.859375 140.386719 310.636719 138.648438 Z M 313.601562 138.648438 "/>
<g clip-path="url(#clip-3)">
<path fill-rule="nonzero" fill="rgb(25.491333%, 17.297363%, 57.014465%)" fill-opacity="1" d="M 433.953125 143.4375 L 430.828125 143.4375 L 430.828125 134.1875 C 430.828125 133.167969 430.378906 132.660156 429.484375 132.660156 L 424.632812 132.660156 L 424.632812 129.421875 L 430.375 129.421875 C 432.761719 129.421875 433.953125 130.664062 433.953125 133.15625 Z M 421.113281 143.4375 L 417.992188 143.4375 L 417.992188 132.660156 L 416.34375 132.660156 L 416.34375 129.421875 L 421.113281 129.421875 Z M 413.28125 132.671875 L 410.378906 132.671875 L 410.378906 133.054688 L 411.417969 134.667969 C 411.515625 134.839844 411.578125 135.011719 411.605469 135.191406 L 412.429688 141.402344 L 412.082031 143.4375 L 409.316406 143.4375 L 409.316406 143.082031 C 409.316406 142.988281 409.3125 142.855469 409.296875 142.6875 C 409.285156 142.519531 409.261719 142.3125 409.226562 142.066406 L 408.132812 133.226562 C 408.089844 132.859375 407.917969 132.613281 407.617188 132.492188 L 407.058594 132.25 L 407.058594 129.421875 L 413.28125 129.421875 Z M 403.609375 148.402344 L 400.484375 148.402344 L 400.484375 132.660156 L 398.835938 132.660156 L 398.835938 129.421875 L 403.609375 129.421875 Z M 389.105469 129.421875 L 389.105469 139.378906 C 389.105469 142.085938 388.039062 143.4375 385.902344 143.4375 L 383.402344 143.4375 L 383.402344 140.199219 L 384.757812 140.199219 C 385.582031 140.199219 385.992188 139.738281 385.992188 138.8125 L 385.992188 132.660156 L 383.042969 132.660156 C 382.199219 132.660156 381.652344 132.894531 381.394531 133.367188 C 381.324219 133.515625 381.289062 133.675781 381.289062 133.847656 L 381.289062 143.4375 L 378.164062 143.4375 L 378.164062 133.523438 C 378.164062 133.351562 378.113281 133.070312 378.015625 132.671875 L 376.847656 132.671875 L 376.847656 129.421875 L 380.769531 129.421875 L 381.117188 131.105469 L 381.394531 131.105469 L 382.789062 129.902344 C 383.144531 129.582031 383.53125 129.421875 383.945312 129.421875 Z M 373.828125 132.277344 L 372.84375 132.53125 C 372.347656 132.671875 372.101562 133.066406 372.101562 133.707031 L 372.101562 143.4375 L 368.976562 143.4375 L 368.976562 134.878906 L 369.894531 132.886719 L 369.894531 132.660156 L 363.871094 132.660156 L 363.871094 129.421875 L 373.828125 129.421875 Z M 360.558594 137.230469 L 357.675781 137.230469 L 357.367188 133.308594 L 357.367188 132.660156 L 355.785156 132.660156 L 355.785156 129.421875 L 360.558594 129.421875 Z M 344.476562 148.417969 L 341.351562 148.417969 L 341.351562 137.964844 L 341.800781 135.105469 L 344.476562 135.105469 Z M 352.480469 135.8125 C 352.480469 136.792969 352.339844 137.589844 352.066406 138.203125 C 351.808594 138.761719 351.367188 139.351562 350.738281 139.972656 L 347.238281 143.4375 L 346.535156 143.4375 L 346.535156 140.085938 L 348.664062 137.863281 C 349.125 137.382812 349.355469 136.792969 349.355469 136.097656 L 349.355469 132.660156 L 340.871094 132.660156 L 340.871094 129.421875 L 352.480469 129.421875 Z M 337.269531 135.714844 C 337.269531 136.828125 337.113281 137.699219 336.800781 138.332031 C 336.519531 138.90625 335.953125 139.558594 335.113281 140.285156 L 331.429688 143.492188 L 330.421875 143.492188 L 330.421875 140.453125 L 333.371094 137.851562 C 333.886719 137.398438 334.144531 136.859375 334.144531 136.238281 L 334.144531 132.660156 L 327.523438 132.660156 L 327.523438 125.714844 L 330.648438 125.714844 L 330.648438 129.421875 L 337.269531 129.421875 Z M 314.652344 132.660156 L 309.867188 132.660156 L 309.867188 138.769531 C 309.867188 139.777344 310.320312 140.285156 311.222656 140.285156 L 313.148438 140.285156 C 314.152344 140.285156 314.652344 139.75 314.652344 138.683594 Z M 317.777344 129.421875 L 317.777344 138.828125 C 317.777344 140.25 317.371094 141.410156 316.554688 142.304688 C 315.792969 143.117188 314.847656 143.523438 313.722656 143.523438 L 310.519531 143.523438 C 309.398438 143.523438 308.507812 143.183594 307.84375 142.503906 C 307.109375 141.75 306.742188 140.664062 306.742188 139.25 L 306.742188 134.511719 L 307.59375 132.941406 L 307.59375 132.617188 L 306.105469 132.347656 L 306.105469 129.421875 Z M 302.539062 129.421875 L 302.539062 139.519531 C 302.539062 142.132812 301.425781 143.4375 299.191406 143.4375 L 296.160156 143.4375 L 296.160156 140.199219 L 298.273438 140.199219 C 299.035156 140.199219 299.414062 139.785156 299.414062 138.953125 L 299.414062 132.660156 L 297.101562 132.660156 L 297.101562 129.421875 Z M 292.820312 138.742188 C 292.820312 140.261719 292.425781 141.4375 291.636719 142.277344 C 290.910156 143.050781 289.953125 143.4375 288.765625 143.4375 L 281.734375 143.4375 L 281.734375 129.421875 L 284.859375 129.421875 L 284.859375 140.199219 L 288.183594 140.199219 C 289.191406 140.199219 289.699219 139.621094 289.699219 138.460938 L 289.699219 132.335938 L 289.21875 132.335938 L 288.527344 133.367188 L 287.636719 134.667969 L 286.597656 134.667969 L 286.597656 131.445312 L 287.890625 129.902344 C 288.136719 129.582031 288.425781 129.421875 288.753906 129.421875 L 292.820312 129.421875 Z M 277.539062 143.4375 L 274.414062 143.4375 L 274.414062 134.1875 C 274.414062 133.167969 273.96875 132.660156 273.074219 132.660156 L 268.21875 132.660156 L 268.21875 129.421875 L 273.964844 129.421875 C 276.347656 129.421875 277.539062 130.664062 277.539062 133.15625 Z M 258.023438 147.835938 L 255.285156 147.835938 L 255.285156 124.105469 L 258.023438 124.105469 Z M 244.390625 138.460938 C 244.390625 139.988281 243.957031 141.210938 243.085938 142.136719 C 242.253906 143.003906 241.203125 143.4375 239.933594 143.4375 L 233.074219 143.4375 L 233.074219 140.285156 L 236.414062 140.285156 L 236.414062 139.972656 L 235.164062 137.933594 L 233.515625 130.242188 L 233.515625 129.421875 L 236.664062 129.421875 L 238.632812 139.503906 L 238.632812 140.285156 L 239.707031 140.285156 C 240.746094 140.285156 241.265625 139.703125 241.265625 138.542969 L 241.265625 129.421875 L 244.390625 129.421875 Z M 229.898438 129.421875 L 229.898438 139.09375 C 229.898438 140.492188 229.546875 141.574219 228.847656 142.347656 C 228.191406 143.074219 227.324219 143.4375 226.242188 143.4375 L 219.289062 143.4375 L 219.289062 140.199219 L 225.300781 140.199219 C 225.867188 140.199219 226.261719 140.066406 226.480469 139.804688 C 226.675781 139.566406 226.773438 139.140625 226.773438 138.53125 L 226.773438 132.53125 L 223.769531 132.53125 C 222.875 132.53125 222.425781 132.839844 222.425781 133.453125 L 222.425781 134.921875 L 224.460938 134.921875 L 224.460938 137.878906 L 219.410156 137.878906 L 219.410156 134.667969 L 220.59375 132.886719 L 220.59375 132.589844 L 219.15625 132.265625 L 219.15625 129.421875 Z M 215.109375 143.4375 L 211.984375 143.4375 L 211.984375 132.660156 L 210.335938 132.660156 L 210.335938 129.421875 L 215.109375 129.421875 Z M 207.0625 135.714844 C 207.0625 136.828125 206.910156 137.699219 206.597656 138.332031 C 206.3125 138.90625 205.75 139.558594 204.910156 140.285156 L 201.226562 143.492188 L 200.214844 143.492188 L 200.214844 140.453125 L 203.167969 137.851562 C 203.683594 137.398438 203.9375 136.859375 203.9375 136.238281 L 203.9375 132.660156 L 197.320312 132.660156 L 197.320312 125.714844 L 200.441406 125.714844 L 200.441406 129.421875 L 207.0625 129.421875 Z M 186.378906 135.246094 L 186.378906 143.4375 L 183.265625 143.4375 L 183.265625 138.105469 L 183.730469 135.246094 Z M 193.769531 129.421875 L 193.769531 143.4375 L 190.644531 143.4375 L 190.644531 132.660156 L 183.039062 132.660156 L 183.039062 129.421875 Z M 193.769531 129.421875 "/>
</g>
<g clip-path="url(#clip-4)">
<path fill-rule="nonzero" fill="rgb(25.491333%, 17.297363%, 57.014465%)" fill-opacity="1" d="M 357.488281 128.992188 L 357.488281 137.613281 C 357.488281 139.957031 356.566406 141.128906 354.714844 141.128906 L 352.550781 141.128906 L 352.550781 138.324219 L 353.726562 138.324219 C 354.441406 138.324219 354.796875 137.921875 354.796875 137.125 L 354.796875 131.796875 L 352.238281 131.796875 C 351.511719 131.796875 351.035156 132 350.8125 132.410156 C 350.75 132.539062 350.722656 132.679688 350.722656 132.824219 L 350.722656 141.128906 L 348.015625 141.128906 L 348.015625 132.542969 C 348.015625 132.398438 347.972656 132.152344 347.890625 131.808594 L 346.875 131.808594 L 346.875 128.992188 L 350.273438 128.992188 L 350.570312 130.449219 L 350.8125 130.449219 L 352.019531 129.40625 C 352.328125 129.128906 352.664062 128.992188 353.023438 128.992188 Z M 344.21875 141.128906 L 341.515625 141.128906 L 341.515625 133.117188 C 341.515625 132.238281 341.125 131.796875 340.347656 131.796875 L 336.148438 131.796875 L 336.148438 128.992188 L 341.121094 128.992188 C 343.1875 128.992188 344.21875 130.070312 344.21875 132.226562 Z M 333.644531 137.125 C 333.644531 138.453125 333.308594 139.464844 332.628906 140.164062 C 332 140.808594 331.125 141.128906 330.007812 141.128906 L 325.308594 141.128906 L 325.308594 138.324219 L 329.429688 138.324219 C 330.023438 138.324219 330.421875 138.214844 330.628906 137.992188 C 330.835938 137.773438 330.9375 137.359375 330.9375 136.753906 L 330.9375 133.117188 C 330.9375 132.5625 330.835938 132.191406 330.628906 132.007812 C 330.449219 131.867188 330.128906 131.796875 329.660156 131.796875 L 325.347656 131.796875 L 325.347656 128.992188 L 330.523438 128.992188 C 332.605469 128.992188 333.644531 130.109375 333.644531 132.347656 Z M 322.570312 131.808594 L 320.0625 131.808594 L 320.0625 132.140625 L 320.960938 133.539062 C 321.046875 133.683594 321.097656 133.832031 321.121094 133.988281 L 321.835938 139.363281 L 321.535156 141.128906 L 319.140625 141.128906 L 319.140625 140.820312 C 319.140625 140.742188 319.136719 140.625 319.121094 140.480469 C 319.113281 140.332031 319.09375 140.152344 319.0625 139.9375 L 318.117188 132.285156 C 318.078125 131.96875 317.925781 131.757812 317.667969 131.652344 L 317.183594 131.441406 L 317.183594 128.992188 L 322.570312 128.992188 Z M 309.375 141.128906 L 306.671875 141.128906 L 306.671875 133.117188 C 306.671875 132.238281 306.28125 131.796875 305.507812 131.796875 L 301.304688 131.796875 L 301.304688 128.992188 L 306.277344 128.992188 C 308.34375 128.992188 309.375 130.070312 309.375 132.226562 Z M 298.585938 128.992188 L 298.585938 137.371094 C 298.585938 138.578125 298.28125 139.515625 297.675781 140.183594 C 297.105469 140.8125 296.355469 141.128906 295.417969 141.128906 L 289.398438 141.128906 L 289.398438 138.324219 L 294.601562 138.324219 C 295.09375 138.324219 295.4375 138.207031 295.625 137.980469 C 295.792969 137.777344 295.878906 137.410156 295.878906 136.878906 L 295.878906 131.6875 L 293.28125 131.6875 C 292.503906 131.6875 292.113281 131.953125 292.113281 132.480469 L 292.113281 133.753906 L 293.878906 133.753906 L 293.878906 136.3125 L 289.503906 136.3125 L 289.503906 133.539062 L 290.527344 131.992188 L 290.527344 131.734375 L 289.285156 131.453125 L 289.285156 128.992188 Z M 286.039062 141.128906 L 283.335938 141.128906 L 283.335938 131.796875 L 281.90625 131.796875 L 281.90625 128.992188 L 286.039062 128.992188 Z M 279.671875 141.128906 L 277.035156 141.128906 L 272.648438 133.964844 C 272.324219 134.308594 272.164062 134.699219 272.164062 135.140625 L 272.164062 138.578125 L 273.28125 138.578125 L 273.28125 141.128906 L 269.585938 141.128906 L 269.585938 135.003906 C 269.585938 134.703125 269.660156 134.453125 269.816406 134.246094 L 271.300781 132.433594 L 271.300781 132.066406 L 269.597656 129.507812 L 269.597656 128.992188 L 272.5 128.992188 L 276.113281 134.574219 C 276.359375 134.191406 276.484375 133.839844 276.484375 133.511719 L 276.484375 128.992188 L 279.195312 128.992188 L 279.195312 133.539062 C 279.195312 133.847656 279.117188 134.097656 278.957031 134.296875 L 277.335938 136.21875 L 277.335938 136.609375 L 279.671875 140.492188 Z M 266.542969 135.75 L 264.046875 135.75 L 263.78125 132.359375 L 263.78125 131.796875 L 262.410156 131.796875 L 262.410156 128.992188 L 266.542969 128.992188 Z M 254.160156 144.933594 L 251.789062 144.933594 L 251.789062 124.386719 L 254.160156 124.386719 Z M 242.785156 128.992188 L 242.785156 141.128906 L 240.082031 141.128906 L 240.082031 131.796875 L 236.273438 131.796875 L 236.515625 138.152344 L 236.515625 141.128906 L 231.992188 141.128906 L 231.992188 138.324219 L 233.855469 138.324219 L 233.636719 133.375 L 234.238281 132.117188 L 234.238281 131.832031 L 232.808594 131.527344 L 232.808594 128.992188 Z M 229.613281 134.441406 C 229.613281 135.40625 229.480469 136.160156 229.210938 136.707031 C 228.964844 137.207031 228.476562 137.769531 227.75 138.398438 L 224.558594 141.175781 L 223.6875 141.175781 L 223.6875 138.542969 L 226.238281 136.292969 C 226.6875 135.898438 226.90625 135.433594 226.90625 134.894531 L 226.90625 131.796875 L 221.175781 131.796875 L 221.175781 125.785156 L 223.878906 125.785156 L 223.878906 128.992188 L 229.613281 128.992188 Z M 213.660156 141.128906 L 211.023438 141.128906 L 206.640625 133.964844 C 206.316406 134.308594 206.15625 134.699219 206.15625 135.140625 L 206.15625 138.578125 L 207.273438 138.578125 L 207.273438 141.128906 L 203.578125 141.128906 L 203.578125 135.003906 C 203.578125 134.703125 203.652344 134.453125 203.808594 134.246094 L 205.292969 132.433594 L 205.292969 132.066406 L 203.589844 129.507812 L 203.589844 128.992188 L 206.488281 128.992188 L 210.105469 134.574219 C 210.347656 134.191406 210.472656 133.839844 210.472656 133.511719 L 210.472656 128.992188 L 213.1875 128.992188 L 213.1875 133.539062 C 213.1875 133.847656 213.109375 134.097656 212.949219 134.296875 L 211.324219 136.21875 L 211.324219 136.609375 L 213.660156 140.492188 Z M 201 141.128906 L 192.046875 141.128906 L 192.046875 138.324219 L 196.164062 138.324219 C 196.40625 138.324219 196.605469 138.296875 196.769531 138.246094 C 196.9375 138.191406 197.070312 138.105469 197.167969 137.980469 C 197.265625 137.855469 197.339844 137.695312 197.382812 137.496094 C 197.421875 137.296875 197.445312 137.050781 197.445312 136.753906 L 197.445312 131.796875 L 192.207031 131.796875 L 192.207031 128.992188 L 200.148438 128.992188 L 200.148438 135.761719 C 200.148438 136.058594 200.03125 136.453125 199.792969 136.953125 L 199.261719 138.078125 L 199.261719 138.324219 L 201 138.324219 Z M 189.359375 135.75 L 186.859375 135.75 L 186.59375 132.359375 L 186.59375 131.796875 L 185.226562 131.796875 L 185.226562 128.992188 L 189.359375 128.992188 Z M 183.203125 141.128906 L 174.246094 141.128906 L 174.246094 138.324219 L 178.367188 138.324219 C 178.605469 138.324219 178.808594 138.296875 178.972656 138.246094 C 179.136719 138.191406 179.269531 138.105469 179.367188 137.980469 C 179.46875 137.855469 179.539062 137.695312 179.582031 137.496094 C 179.625 137.296875 179.644531 137.050781 179.644531 136.753906 L 179.644531 131.796875 L 174.410156 131.796875 L 174.410156 128.992188 L 182.351562 128.992188 L 182.351562 135.761719 C 182.351562 136.058594 182.230469 136.453125 181.992188 136.953125 L 181.464844 138.078125 L 181.464844 138.324219 L 183.203125 138.324219 Z M 183.203125 141.128906 "/>
</g>
</svg>
